<svg version="1.1" id="Layer_1" xmlns="http://www.w3.org/2000/svg" xmlns:xlink="http://www.w3.org/1999/xlink" x="0px" y="0px"
	 viewBox="0 0 800 600" style="enable-background:new 0 0 800 600;" xml:space="preserve">
<style type="text/css">
	.st0{opacity:0.2;}
	.st1{fill:url(#BG_1_);}
	.st2{fill:url(#iris_1_);}
	.st3{opacity:0.6;fill:#FFFFFF;enable-background:new    ;}
	.st4{opacity:0.25;}
	.st5{fill:#FFE0BD;}
	.st6{fill:url(#LLASH_1_);}
	.st7{fill:url(#ULASH_1_);}
</style>
<g id="item">
	<path id="shadow" class="st0" d="M800,300c-0.1-0.1-0.2-0.2-0.3-0.3C719.8,162,570.6,52,400,52C229.2,52,79.9,162.1,0,300
		c61.3-65.3,163.3-114.3,284.6-133.5c0,0,0,0,0,0C163.3,185.8,61.2,234.7,0,300c79.9,137.9,229.1,213.2,400,213.2
		S720,437.9,799.9,300C799.9,300,799.9,300,800,300L800,300z M741.3,250.6c-59.6-40.3-137.7-70-225.9-84.1c0,0,0,0,0,0
		C603.7,180.5,681.7,210.2,741.3,250.6z"/>
	
		<radialGradient id="BG_1_" cx="399.95" cy="302" r="294.4765" gradientTransform="matrix(1 0 0 -1 0 602)" gradientUnits="userSpaceOnUse">
		<stop  offset="0" style="stop-color:#FFFFFF"/>
		<stop  offset="0.9944" style="stop-color:#CCCCCC"/>
	</radialGradient>
	<path id="BG" class="st1" d="M0,300c115.7,73.4,252.9,115.9,400,115.9S684.3,373.4,800,300C684.3,226.6,547,184.1,400,184.1
		S115.7,226.6,0,300z"/>
	
		<radialGradient id="iris_1_" cx="399.95" cy="302" r="176.5" gradientTransform="matrix(1 0 0 -1 0 602)" gradientUnits="userSpaceOnUse">
		<stop  offset="0" style="stop-color:#eb96ab"/>
		<stop  offset="1" style="stop-color:#000000"/>
	</radialGradient>
	<circle id="iris" class="st2" cx="400" cy="300" r="176.5"/>
	<circle id="pupil" cx="400" cy="300" r="109.1"/>
	<image style="overflow:visible;" width="2262" height="2262" id="propic" xlink:href="../personal/Profile.png"  transform="matrix(9.637489e-002 0 0 9.637489e-002 290.44 190.44)">
	</image>
	<path id="shinybig" class="st3" d="M393.4,408.9c-5.9,1-11.8,1.5-18,1.5c-60.3,0-109.1-48.8-109.1-109.1c0-22.5,6.8-43.5,18.6-60.9
		c10.3-3.2,21.3-5,32.7-5c2.2,0,4.4,0,6.6,0.2c-13.8,18.3-22,41-22,65.7C302.2,355.4,341.7,400.3,393.4,408.9z"/>
	<path id="shinysmall" class="st3" d="M387.4,196.5c-18.7,3.3-36.5,11.5-51.3,23.9c-13-5.6-26.5-8.5-39.9-8.8
		c17.7-18.1,41-29.3,65.6-32.2c0.6,0.3,1.2,0.6,1.9,0.9C372.5,184.8,380.4,190.3,387.4,196.5z"/>
	<path id="LASHSHADOW" class="st4" d="M 400 199.9 C 547.1 199.9 684.3 226.6 800 300 L 800.1 300 C 720 214.8 570.8 157.5 400 157.5 C 229.2 157.5 79.9 214.8 0 300 C 115.7 226.6 252.9 199.9 400 199.9 Z"/>
	<path id="LLID" class="st5" d="M400,530.6c170.9,0,320.1-92.7,400-230.6c-80,85.2-229.2,142.5-400,142.5S79.9,385.2,0,300
		C79.9,437.9,229.1,530.6,400,530.6z"/>
	
		<radialGradient id="LLASH_1_" cx="399.95" cy="230.75" r="287.2948" gradientTransform="matrix(1 0 0 -1 0 602)" gradientUnits="userSpaceOnUse">
		<stop  offset="0" style="stop-color:#FFFFFF"/>
		<stop  offset="6.285286e-002" style="stop-color:#DADADA"/>
		<stop  offset="0.1601" style="stop-color:#A7A7A7"/>
		<stop  offset="0.2621" style="stop-color:#7B7B7B"/>
		<stop  offset="0.3668" style="stop-color:#555555"/>
		<stop  offset="0.475" style="stop-color:#363636"/>
		<stop  offset="0.5878" style="stop-color:#1E1E1E"/>
		<stop  offset="0.7072" style="stop-color:#0D0D0D"/>
		<stop  offset="0.8376" style="stop-color:#030303"/>
		<stop  offset="1" style="stop-color:#000000"/>
	</radialGradient>
	<path id="LLASH" class="st6" d="M400,442.5c170.9,0,320.1-57.3,400-142.5l0,0C684.3,373.4,547,415.9,400,415.9S115.7,373.4,0,300
		l0,0C79.9,385.2,229.1,442.5,400,442.5z"/>
	<path id="ULID" class="st5" d="M 400 157.5 C 570.9 157.5 720.1 214.8 800 300 C 720 162.1 570.8 69.4 400 69.4 C 229.2 69.4 79.9 162.1 0 300 C 79.9 214.8 229.1 157.5 400 157.5 Z"/>
	
		<radialGradient id="ULASH_1_" cx="400" cy="373.25" r="287.3296" gradientTransform="matrix(1 0 0 -1 0 602)" gradientUnits="userSpaceOnUse">
		<stop  offset="0" style="stop-color:#FFFFFF"/>
		<stop  offset="6.285286e-002" style="stop-color:#DADADA"/>
		<stop  offset="0.1601" style="stop-color:#A7A7A7"/>
		<stop  offset="0.2621" style="stop-color:#7B7B7B"/>
		<stop  offset="0.3668" style="stop-color:#555555"/>
		<stop  offset="0.475" style="stop-color:#363636"/>
		<stop  offset="0.5878" style="stop-color:#1E1E1E"/>
		<stop  offset="0.7072" style="stop-color:#0D0D0D"/>
		<stop  offset="0.8376" style="stop-color:#030303"/>
		<stop  offset="1" style="stop-color:#000000"/>
	</radialGradient>
	<path id="ULASH" class="st7" d="M 400 184.1 C 547.1 184.1 684.3 226.6 800 300 L 800.1 300 C 720 214.8 570.8 157.5 400 157.5 C 229.2 157.5 79.9 214.8 0 300 C 115.7 226.6 252.9 184.1 400 184.1 Z"/>
</g>
<style>
	#LLID,#ULID{
	fill:#FFE2D1FF;
	}
	#item:hover #ULID{
		d:path("M 399.9 415.9 C 624.9 415.9 787.7 312.2 799.9 300 C 719.9 162.1 570.7 69.4 399.9 69.4 C 229.1 69.4 79.8 162.1 0 300 C 12.7 312.8 174.9 415.9 399.9 415.9 Z");
	}
	#item:hover #ULASH,#item:hover #LASHSHADOW{
		d:path("M 399.9 442.5 C 547 442.5 698 401.9 799.9 300 L 800 300 C 787.2 312.8 621.4 415.9 399.9 415.9 C 178.4 415.9 12 312 0 300 C 101.2 401.3 252.8 442.5 399.9 442.5 Z");
	}
	#ULID,#ULASH,#LASHSHADOW{
		transition: all 0.4s ease 0.6s;
	}
	#item:hover #pupil{
	transform-origin:center;
		transform:scale(1.1);
		transition:transform 0.6s ease;
	}
	#item:hover #iris{
	transform-origin:center;
		transform:scale(0.9);
		transition:transform 0.6s ease;
	}
	#pupil{
	fill:#012;
	}
	#propic{
		opacity:0;
		transition:opacity 1s;
	}
	#item:hover #propic{
		opacity:0 !important;
		transition: opacity 0.3s;
	}
</style>
<script>
	setTimeout(function(){
	document.querySelector('#propic').style.opacity="0.8";
	},1000)
</script>
</svg>
